<svg width="547" height="14" viewBox="0 0 547 14" fill="none" xmlns="http://www.w3.org/2000/svg">
<line x1="0.5" y1="14" x2="0.500001" y2="-2.17756e-08" stroke="black"/>
<line x1="546.5" y1="14" x2="546.5" y2="-2.16551e-08" stroke="black"/>
<line x1="491.601" y1="14" x2="491.601" y2="-2.16551e-08" stroke="black"/>
<path d="M383.3 14L383.3 3" stroke="black"/>
<path d="M438.199 14L438.199 3" stroke="black"/>
<line x1="327.9" y1="14" x2="327.9" y2="-2.16551e-08" stroke="black"/>
<line x1="273.001" y1="14" x2="273.001" y2="-2.16551e-08" stroke="black"/>
<line x1="219.1" y1="14" x2="219.1" y2="-2.16551e-08" stroke="black"/>
<line x1="164.2" y1="14" x2="164.2" y2="-2.16551e-08" stroke="black"/>
<line x1="109.301" y1="14" x2="109.301" y2="-2.16551e-08" stroke="black"/>
<line x1="55.3994" y1="14" x2="55.3994" y2="-2.18155e-08" stroke="black"/>
<path d="M1 6.9751L422.583 6.95367" stroke="black" stroke-width="2" stroke-linecap="round"/>
<path d="M421.23 7H546.002" stroke="black" stroke-width="2" stroke-linecap="round"/>
</svg>
